HIERARCHY
ROOT newVegas:Hips
{
	OFFSET 0.000000 96.479958 0.000000
	CHANNELS 6 Xposition Yposition Zposition Xrotation Yrotation Zrotation
	JOINT newVegas:Pelvis
	{
		OFFSET 0.000000 0.000000 0.000000
		CHANNELS 3 Xrotation Yrotation Zrotation
		JOINT newVegas:LeftUpLeg
		{
			OFFSET 18.735201 -5.666702 -4.541200
			CHANNELS 3 Xrotation Yrotation Zrotation
			JOINT newVegas:LeftLeg
			{
				OFFSET -0.021200 -31.938179 0.493100
				CHANNELS 3 Xrotation Yrotation Zrotation
				JOINT newVegas:LeftFoot
				{
					OFFSET 0.021200 -31.938179 -4.336299
					CHANNELS 3 Xrotation Yrotation Zrotation
					JOINT newVegas:LeftToeBase
					{
						OFFSET 0.943001 -26.722000 15.023500
						CHANNELS 3 Xrotation Yrotation Zrotation
						End Site
						{
							OFFSET 0.000000 30.670183 0.000000
						}
					}
				}
				JOINT newVegas:Left_PantLeg
				{
					OFFSET 0.663870 -9.044666 -1.108900
					CHANNELS 3 Xrotation Yrotation Zrotation
					End Site
					{
						OFFSET 1.415995 20.635357 0.000000
					}
				}
			}
		}
		JOINT newVegas:RightUpLeg
		{
			OFFSET -18.735201 -5.666702 -4.541200
			CHANNELS 3 Xrotation Yrotation Zrotation
			JOINT newVegas:RightLeg
			{
				OFFSET 0.018946 -31.938133 0.493100
				CHANNELS 3 Xrotation Yrotation Zrotation
				JOINT newVegas:RightFoot
				{
					OFFSET -0.018946 -31.938126 -4.336299
					CHANNELS 3 Xrotation Yrotation Zrotation
					JOINT newVegas:RightToeBase
					{
						OFFSET -0.943001 -26.722004 15.023500
						CHANNELS 3 Xrotation Yrotation Zrotation
						End Site
						{
							OFFSET 0.000000 30.670187 0.000000
						}
					}
				}
				JOINT newVegas:Right_PantLeg
				{
					OFFSET -0.661674 -9.044716 -1.108900
					CHANNELS 3 Xrotation Yrotation Zrotation
					End Site
					{
						OFFSET -1.415958 20.635269 0.000000
					}
				}
			}
		}
	}
	JOINT newVegas:Spine
	{
		OFFSET 0.000000 10.199997 -0.299500
		CHANNELS 3 Xrotation Yrotation Zrotation
		JOINT newVegas:Spine1
		{
			OFFSET 0.000000 11.900002 -1.516600
			CHANNELS 3 Xrotation Yrotation Zrotation
			JOINT newVegas:Spine2
			{
				OFFSET 0.000000 13.600006 -2.842500
				CHANNELS 3 Xrotation Yrotation Zrotation
				JOINT newVegas:Neck
				{
					OFFSET 0.000000 9.624100 -2.890100
					CHANNELS 3 Xrotation Yrotation Zrotation
					JOINT newVegas:Head
					{
						OFFSET 0.000000 14.068802 -1.351900
						CHANNELS 3 Xrotation Yrotation Zrotation
						JOINT newVegas:Hair_Back
						{
							OFFSET 0.000000 3.231903 -17.524799
							CHANNELS 3 Xrotation Yrotation Zrotation
							End Site
							{
								OFFSET 0.000000 19.849884 0.000000
							}
						}
						JOINT newVegas:Hair_Front
						{
							OFFSET 0.000000 31.260406 4.573800
							CHANNELS 3 Xrotation Yrotation Zrotation
							JOINT newVegas:Hair_Front1
							{
								OFFSET 0.000000 2.284103 11.993300
								CHANNELS 3 Xrotation Yrotation Zrotation
								JOINT newVegas:Hair_Front2
								{
									OFFSET 0.000000 2.284103 11.993300
									CHANNELS 3 Xrotation Yrotation Zrotation
									End Site
									{
										OFFSET 0.000000 12.208862 0.000000
									}
								}
							}
						}
						JOINT newVegas:Jowel
						{
							OFFSET 0.000000 -7.458206 6.864100
							CHANNELS 3 Xrotation Yrotation Zrotation
							End Site
							{
								OFFSET 0.000000 19.849884 0.000000
							}
						}
					}
				}
				JOINT newVegas:LeftShoulder
				{
					OFFSET 15.263000 10.923401 -0.547700
					CHANNELS 3 Xrotation Yrotation Zrotation
					JOINT newVegas:LeftArm
					{
						OFFSET 25.438599 -2.830597 -13.032500
						CHANNELS 3 Xrotation Yrotation Zrotation
						JOINT newVegas:LeftForeArm
						{
							OFFSET 29.960503 0.000000 0.000000
							CHANNELS 3 Xrotation Yrotation Zrotation
							JOINT newVegas:LeftHand
							{
								OFFSET 27.849251 0.000000 0.000000
								CHANNELS 3 Xrotation Yrotation Zrotation
								JOINT newVegas:LeftHandThumb1
								{
									OFFSET 4.487587 -3.305161 6.305391
									CHANNELS 3 Xrotation Yrotation Zrotation
									JOINT newVegas:LeftHandThumb2
									{
										OFFSET 5.480453 -3.164139 3.164143
										CHANNELS 3 Xrotation Yrotation Zrotation
										JOINT newVegas:LeftHandThumb3
										{
											OFFSET 5.159721 -2.978973 2.978967
											CHANNELS 3 Xrotation Yrotation Zrotation
											End Site
											{
												OFFSET 2.494507 5.926697 1.738678
											}
										}
									}
								}
								JOINT newVegas:LeftHandIndex1
								{
									OFFSET 18.578728 -0.527832 5.208049
									CHANNELS 3 Xrotation Yrotation Zrotation
									JOINT newVegas:LeftHandIndex2
									{
										OFFSET 3.192009 0.000000 0.000000
										CHANNELS 3 Xrotation Yrotation Zrotation
										JOINT newVegas:LeftHandIndex3
										{
											OFFSET 3.835129 0.000000 0.000000
											CHANNELS 3 Xrotation Yrotation Zrotation
											End Site
											{
												OFFSET -0.034599 3.816971 0.371180
											}
										}
									}
								}
								JOINT newVegas:LeftHandMiddle1
								{
									OFFSET 18.476105 0.000000 0.000000
									CHANNELS 3 Xrotation Yrotation Zrotation
									JOINT newVegas:LeftHandMiddle2
									{
										OFFSET 3.324875 0.000000 0.000000
										CHANNELS 3 Xrotation Yrotation Zrotation
										JOINT newVegas:LeftHandMiddle3
										{
											OFFSET 4.596550 0.000000 0.000000
											CHANNELS 3 Xrotation Yrotation Zrotation
											End Site
											{
												OFFSET 0.057701 4.578827 0.399218
											}
										}
									}
								}
								JOINT newVegas:LeftHandRing1
								{
									OFFSET 17.732719 0.121887 -4.201567
									CHANNELS 3 Xrotation Yrotation Zrotation
									JOINT newVegas:LeftHandRing2
									{
										OFFSET 2.733170 0.000000 0.000000
										CHANNELS 3 Xrotation Yrotation Zrotation
										JOINT newVegas:LeftHandRing3
										{
											OFFSET 3.178268 0.000000 0.000000
											CHANNELS 3 Xrotation Yrotation Zrotation
											End Site
											{
												OFFSET 0.119102 3.170624 0.185394
											}
										}
									}
								}
								JOINT newVegas:LeftHandPinky1
								{
									OFFSET 15.989624 -0.606689 -7.535461
									CHANNELS 3 Xrotation Yrotation Zrotation
									JOINT newVegas:LeftHandPinky2
									{
										OFFSET 2.538986 0.000000 0.000000
										CHANNELS 3 Xrotation Yrotation Zrotation
										JOINT newVegas:LeftHandPinky3
										{
											OFFSET 2.593102 0.000000 0.000000
											CHANNELS 3 Xrotation Yrotation Zrotation
											End Site
											{
												OFFSET -0.150902 2.584198 0.152708
											}
										}
									}
								}
							}
							JOINT newVegas:Left_Sleeve
							{
								OFFSET 0.267448 -0.649796 0.577675
								CHANNELS 3 Xrotation Yrotation Zrotation
								End Site
								{
									OFFSET 0.000000 15.991241 0.000000
								}
							}
							JOINT newVegas:Left_CapeC
							{
								OFFSET 15.715958 -8.608795 -6.935905
								CHANNELS 3 Xrotation Yrotation Zrotation
								JOINT newVegas:Left_CapeC1
								{
									OFFSET 0.000000 -8.688499 0.000000
									CHANNELS 3 Xrotation Yrotation Zrotation
									End Site
									{
										OFFSET 0.000000 8.688499 0.000000
									}
								}
							}
						}
						JOINT newVegas:Left_CapeB
						{
							OFFSET 26.118385 -8.608795 -7.079235
							CHANNELS 3 Xrotation Yrotation Zrotation
							JOINT newVegas:Left_CapeB1
							{
								OFFSET 0.000000 -8.688499 0.000000
								CHANNELS 3 Xrotation Yrotation Zrotation
								End Site
								{
									OFFSET 0.000000 8.688499 0.000000
								}
							}
						}
						JOINT newVegas:Left_CapeA
						{
							OFFSET 5.115639 -8.608795 -10.395809
							CHANNELS 3 Xrotation Yrotation Zrotation
							JOINT newVegas:Left_CapeA1
							{
								OFFSET 0.000000 -8.688499 0.000000
								CHANNELS 3 Xrotation Yrotation Zrotation
								End Site
								{
									OFFSET 0.000000 8.688499 0.000000
								}
							}
						}
					}
				}
				JOINT newVegas:RightShoulder
				{
					OFFSET -15.263000 10.923401 -0.547700
					CHANNELS 3 Xrotation Yrotation Zrotation
					JOINT newVegas:RightArm
					{
						OFFSET -25.438599 -2.830597 -13.032500
						CHANNELS 3 Xrotation Yrotation Zrotation
						JOINT newVegas:RightForeArm
						{
							OFFSET -29.960503 0.000000 0.000000
							CHANNELS 3 Xrotation Yrotation Zrotation
							JOINT newVegas:RightHand
							{
								OFFSET -27.849251 0.000000 0.000000
								CHANNELS 3 Xrotation Yrotation Zrotation
								JOINT newVegas:RightHandThumb1
								{
									OFFSET -4.487587 -3.305161 6.305391
									CHANNELS 3 Xrotation Yrotation Zrotation
									JOINT newVegas:RightHandThumb2
									{
										OFFSET -5.480453 -3.164139 3.164143
										CHANNELS 3 Xrotation Yrotation Zrotation
										JOINT newVegas:RightHandThumb3
										{
											OFFSET -5.159721 -2.978973 2.978967
											CHANNELS 3 Xrotation Yrotation Zrotation
											End Site
											{
												OFFSET -2.494507 5.926697 1.738678
											}
										}
									}
								}
								JOINT newVegas:RightHandIndex1
								{
									OFFSET -18.578728 -0.527832 5.208049
									CHANNELS 3 Xrotation Yrotation Zrotation
									JOINT newVegas:RightHandIndex2
									{
										OFFSET -3.192009 0.000000 0.000000
										CHANNELS 3 Xrotation Yrotation Zrotation
										JOINT newVegas:RightHandIndex3
										{
											OFFSET -3.835129 0.000000 0.000000
											CHANNELS 3 Xrotation Yrotation Zrotation
											End Site
											{
												OFFSET 0.034599 3.816971 0.371180
											}
										}
									}
								}
								JOINT newVegas:RightHandMiddle1
								{
									OFFSET -18.476105 0.000000 0.000000
									CHANNELS 3 Xrotation Yrotation Zrotation
									JOINT newVegas:RightHandMiddle2
									{
										OFFSET -3.324875 0.000000 0.000000
										CHANNELS 3 Xrotation Yrotation Zrotation
										JOINT newVegas:RightHandMiddle3
										{
											OFFSET -4.596550 0.000000 0.000000
											CHANNELS 3 Xrotation Yrotation Zrotation
											End Site
											{
												OFFSET -0.057701 4.578827 0.399218
											}
										}
									}
								}
								JOINT newVegas:RightHandRing1
								{
									OFFSET -17.732719 0.121887 -4.201567
									CHANNELS 3 Xrotation Yrotation Zrotation
									JOINT newVegas:RightHandRing2
									{
										OFFSET -2.733170 0.000000 0.000000
										CHANNELS 3 Xrotation Yrotation Zrotation
										JOINT newVegas:RightHandRing3
										{
											OFFSET -3.178268 0.000000 0.000000
											CHANNELS 3 Xrotation Yrotation Zrotation
											End Site
											{
												OFFSET -0.119102 3.170624 0.185394
											}
										}
									}
								}
								JOINT newVegas:RightHandPinky1
								{
									OFFSET -15.989624 -0.606689 -7.535461
									CHANNELS 3 Xrotation Yrotation Zrotation
									JOINT newVegas:RightHandPinky2
									{
										OFFSET -2.538986 0.000000 0.000000
										CHANNELS 3 Xrotation Yrotation Zrotation
										JOINT newVegas:RightHandPinky3
										{
											OFFSET -2.593102 0.000000 0.000000
											CHANNELS 3 Xrotation Yrotation Zrotation
											End Site
											{
												OFFSET 0.150902 2.584198 0.152708
											}
										}
									}
								}
							}
							JOINT newVegas:Right_CapeC
							{
								OFFSET -15.715958 -8.608795 -6.935905
								CHANNELS 3 Xrotation Yrotation Zrotation
								JOINT newVegas:Right_CapeC1
								{
									OFFSET 0.000000 -8.688499 0.000000
									CHANNELS 3 Xrotation Yrotation Zrotation
									End Site
									{
										OFFSET 0.000000 8.688499 0.000000
									}
								}
							}
							JOINT newVegas:Right_Sleeve
							{
								OFFSET -0.267448 -0.649994 0.577675
								CHANNELS 3 Xrotation Yrotation Zrotation
								End Site
								{
									OFFSET 0.000000 15.991302 0.000000
								}
							}
						}
						JOINT newVegas:Right_CapeA
						{
							OFFSET -5.115540 -8.608795 -10.395824
							CHANNELS 3 Xrotation Yrotation Zrotation
							JOINT newVegas:Right_CapeA1
							{
								OFFSET 0.000000 -8.688499 0.000000
								CHANNELS 3 Xrotation Yrotation Zrotation
								End Site
								{
									OFFSET 0.000000 8.688499 0.000000
								}
							}
						}
						JOINT newVegas:Right_CapeB
						{
							OFFSET -26.118187 -8.608795 -7.079266
							CHANNELS 3 Xrotation Yrotation Zrotation
							JOINT newVegas:Right_CapeB1
							{
								OFFSET 0.000000 -8.688499 0.000000
								CHANNELS 3 Xrotation Yrotation Zrotation
								End Site
								{
									OFFSET 0.000000 8.688499 0.000000
								}
							}
						}
					}
				}
				JOINT newVegas:Left_Collar
				{
					OFFSET 18.625099 8.655502 8.828100
					CHANNELS 3 Xrotation Yrotation Zrotation
					JOINT newVegas:Left_Collar1
					{
						OFFSET 14.783401 10.540405 -1.259500
						CHANNELS 3 Xrotation Yrotation Zrotation
						End Site
						{
							OFFSET 0.000000 18.199875 0.000000
						}
					}
				}
				JOINT newVegas:Collar_Back
				{
					OFFSET 0.000000 15.630707 -20.132601
					CHANNELS 3 Xrotation Yrotation Zrotation
					End Site
					{
						OFFSET 0.000000 22.523010 0.000000
					}
				}
				JOINT newVegas:Left_Peck
				{
					OFFSET 17.239599 -5.132599 25.482599
					CHANNELS 3 Xrotation Yrotation Zrotation
					End Site
					{
						OFFSET 0.000000 22.523010 0.000000
					}
				}
				JOINT newVegas:Right_Peck
				{
					OFFSET -17.239599 -5.132202 25.482599
					CHANNELS 3 Xrotation Yrotation Zrotation
					End Site
					{
						OFFSET 0.000000 22.523010 0.000000
					}
				}
				JOINT newVegas:Right_Collar
				{
					OFFSET -18.625099 8.655792 8.828100
					CHANNELS 3 Xrotation Yrotation Zrotation
					JOINT newVegas:Right_Collar1
					{
						OFFSET -14.783401 10.539993 -1.259500
						CHANNELS 3 Xrotation Yrotation Zrotation
						End Site
						{
							OFFSET 0.000000 18.199631 0.000000
						}
					}
				}
			}
		}
		JOINT newVegas:Belly
		{
			OFFSET 0.000000 -6.540398 9.014299
			CHANNELS 3 Xrotation Yrotation Zrotation
			End Site
			{
				OFFSET 0.000000 11.566666 0.000000
			}
		}
	}
	JOINT newVegas:ElvisFacialAnim_Joint
	{
		OFFSET 1.000000 -95.330101 -8.825800
		CHANNELS 3 Xrotation Yrotation Zrotation
		End Site
		{
			OFFSET 0.000000 35.315800 0.000000
		}
	}
}
MOTION
Frames: 4
Frame Time: 0.033333
-1.753013 89.400925 3.965777 3.123470 -6.637036 4.782742 0.000000 0.000000 -0.000000 -13.135959 34.480219 -4.470619 37.169483 -10.162607 9.751934 -24.194164 -9.022371 3.398993 -0.000000 -0.000000 0.000000 0.000003 -0.000001 0.000000 -29.776285 -25.086112 -31.347426 36.626640 -8.013584 -10.714304 -4.953122 -18.037005 27.333235 -0.000000 0.000001 0.000000 -0.000000 -0.000001 0.000001 0.685307 1.813846 -7.044176 -3.889432 0.476903 1.586254 -3.905311 0.013161 -1.419635 2.606089 0.145778 -0.227411 2.606092 0.145774 -0.227412 0.000000 -0.000000 -0.000000 2.606092 0.145775 -0.227410 2.606088 0.145774 -0.227413 0.000000 -0.000000 -0.000000 0.000000 -0.000000 -0.000000 5.602917 -7.275196 -15.113865 23.835798 -39.623440 -50.368513 -37.224791 -11.452225 -2.886823 -5.693913 -2.506312 0.847761 12.830673 2.243854 -0.637475 13.595784 31.702849 3.864556 0.000001 0.000001 -0.000004 0.224860 3.723915 -13.438180 0.574512 2.532003 -25.563914 0.000000 0.000000 0.000001 1.408628 7.628465 -16.808722 0.575199 2.533437 -25.579531 -0.000000 -0.000000 -0.000001 3.291181 11.897376 -20.501675 0.581185 2.545900 -25.714610 0.000002 0.000001 0.000001 3.689862 18.136656 -22.100153 0.574504 2.531990 -25.563911 -0.000001 -0.000002 -0.000000 0.000001 0.000000 -0.000000 0.000001 0.000000 -0.000000 0.000000 0.000000 0.000000 -0.000002 0.000001 -0.000000 -0.000001 0.000001 0.000000 -0.000002 0.000001 -0.000000 -0.000003 0.000001 -0.000000 15.682859 10.041883 18.095136 8.408961 19.901626 44.932734 -0.662270 13.318846 2.924205 -5.300545 10.067361 7.317398 11.651096 -0.424575 1.230912 13.808657 -33.664247 -4.212611 -0.000000 0.000000 0.000001 0.163432 -3.312570 12.761239 0.458282 -2.016386 25.606705 -0.000000 0.000001 -0.000001 1.285091 -7.163582 16.201345 0.458839 -2.017544 25.622312 -0.000002 -0.000001 0.000003 3.099216 -11.383032 19.963272 0.463615 -2.027469 25.757576 0.000003 -0.000001 0.000001 3.430313 -17.595027 21.665090 0.458277 -2.016386 25.606699 -0.000000 0.000003 0.000001 0.000002 0.000000 -0.000001 0.000002 0.000000 -0.000002 0.000002 0.000000 -0.000000 0.000000 -0.000002 0.000000 0.000000 -0.000002 0.000000 0.000000 -0.000002 0.000000 0.000000 -0.000002 0.000000 0.000000 -0.000000 0.000000 0.000000 -0.000000 0.000000 0.000000 -0.000000 0.000000 0.000000 -0.000000 0.000000 0.000000 -0.000000 0.000000 0.000000 -0.000000 0.000000 0.000000 -0.000000 0.000000 -0.000000 0.000000 -0.000000 0.000000 0.000000 -0.000000 
-1.275222 89.267426 3.883061 2.854262 -6.231613 4.398642 0.000000 0.000000 -0.000000 -13.714376 34.442370 -4.292233 38.385639 -10.165102 9.954015 -24.637507 -9.190410 3.919937 0.000000 0.000000 0.000000 -0.000002 0.000001 -0.000001 -28.988399 -24.887022 -31.093459 36.243231 -8.703622 -10.703521 -4.346192 -17.966367 27.870758 0.000000 -0.000001 -0.000000 0.000001 -0.000001 -0.000002 0.890966 1.783852 -7.307055 -3.543469 0.458703 1.496407 -3.559578 0.004991 -1.431404 2.586821 0.144362 -0.102918 2.586815 0.144360 -0.102916 0.000000 -0.000000 -0.000000 2.586824 0.144364 -0.102919 2.586823 0.144353 -0.102917 0.000000 0.000000 0.000000 0.000000 -0.000000 -0.000000 4.723808 -9.017842 -16.084865 25.286346 -38.466037 -47.421764 -35.023100 -10.711799 -2.833913 -5.711697 -1.799961 0.117871 11.392983 1.014766 -1.081571 14.066521 33.674923 1.564815 -0.000001 0.000001 -0.000003 0.264658 3.983322 -21.541956 1.046851 3.343753 -34.759857 -0.000003 -0.000001 0.000001 1.847771 7.537142 -24.354090 1.047669 3.344916 -34.773787 -0.000001 -0.000002 -0.000003 3.925454 11.330436 -26.696641 1.054695 3.355002 -34.893999 0.000002 -0.000001 -0.000001 4.944616 16.831113 -28.638184 1.046856 3.343748 -34.759844 -0.000001 -0.000003 0.000002 -0.000001 0.000000 0.000000 -0.000001 0.000000 0.000000 -0.000002 0.000000 0.000000 -0.000003 0.000000 0.000000 -0.000003 0.000000 0.000000 -0.000003 0.000000 0.000000 -0.000004 -0.000000 0.000000 14.389964 12.125520 18.572107 9.754773 20.148764 43.344258 -0.284170 12.798526 3.446288 -5.301272 9.650928 7.082761 10.220180 0.822237 1.674264 14.258922 -35.615410 -1.886392 0.000001 -0.000002 -0.000001 0.151242 -3.410923 20.865297 0.834846 -2.662607 34.811312 -0.000001 -0.000001 -0.000001 1.671015 -6.930379 23.735910 0.835488 -2.663535 34.825263 0.000003 -0.000000 0.000000 3.687340 -10.705855 26.136311 0.841084 -2.671563 34.945502 0.000000 0.000004 0.000001 4.635426 -16.182829 28.161042 0.834840 -2.662609 34.811295 0.000002 0.000005 0.000000 -0.000001 0.000000 -0.000000 -0.000001 0.000000 -0.000000 -0.000001 0.000000 0.000000 0.000000 0.000000 -0.000001 0.000001 0.000000 -0.000003 0.000000 0.000000 -0.000001 0.000001 -0.000000 -0.000001 -0.000000 -0.000000 0.000000 -0.000000 -0.000000 0.000000 -0.000000 -0.000000 0.000000 -0.000000 -0.000000 0.000000 -0.000000 -0.000000 0.000000 -0.000000 -0.000000 0.000000 -0.000000 -0.000000 0.000000 -0.000000 0.000000 -0.000000 0.000000 0.000000 -0.000000 
-0.842222 89.256226 3.681324 2.539178 -5.679050 3.601020 -0.000000 -0.000000 0.000000 -14.830963 34.161495 -3.486059 39.786487 -10.175066 10.119741 -24.987885 -9.357173 4.448684 0.000000 -0.000000 0.000000 -0.000000 -0.000002 0.000001 -27.356805 -24.891369 -30.097819 34.994071 -9.928288 -10.389726 -3.424225 -17.677826 28.155703 0.000000 0.000001 0.000000 0.000001 0.000000 -0.000002 1.068823 1.726706 -7.411370 -3.198777 0.443569 1.422201 -3.215008 -0.002214 -1.437323 2.542418 0.133226 0.022269 2.542427 0.133228 0.022269 -0.000000 -0.000000 -0.000000 2.542489 0.133230 0.022268 2.542347 0.133219 0.022269 -0.000000 -0.000000 0.000000 -0.000000 -0.000000 -0.000000 3.666521 -10.984508 -16.691502 26.696015 -38.357335 -43.334282 -32.681540 -10.187468 -2.816321 -5.834011 -1.215723 -4.316726 9.880345 -0.272923 -1.622640 14.587285 35.751700 -0.891497 0.000001 0.000001 -0.000004 0.267536 4.285670 -30.082755 1.679293 4.106232 -44.471170 -0.000000 0.000001 0.000002 2.206481 7.427048 -32.300330 1.680166 4.107094 -44.483318 -0.000003 0.000003 0.000002 4.432885 10.715539 -33.203240 1.687670 4.114699 -44.587847 0.000000 -0.000001 -0.000000 5.915786 15.388454 -35.437354 1.679289 4.106215 -44.471167 -0.000000 0.000000 -0.000000 -0.000003 0.000001 -0.000000 -0.000003 0.000001 -0.000000 -0.000004 0.000001 0.000000 0.000001 0.000000 -0.000000 0.000001 0.000000 0.000000 0.000001 0.000000 -0.000000 -0.000000 0.000000 -0.000000 12.923668 14.509895 19.120715 10.649841 21.293950 40.733281 -0.059621 11.983134 4.055597 -5.389375 9.554207 7.792629 8.710965 2.128801 2.215275 14.758519 -37.670276 0.597543 0.000003 -0.000001 0.000001 0.074848 -3.552284 29.405081 1.338740 -3.269438 44.526061 -0.000000 0.000004 0.000002 1.953348 -6.678542 31.668657 1.339428 -3.270125 44.538192 0.000001 0.000001 -0.000001 4.133321 -9.979708 32.618644 1.345402 -3.276173 44.642779 0.000002 -0.000001 -0.000001 5.542564 -14.632610 34.915203 1.338724 -3.269407 44.526061 0.000001 -0.000000 -0.000002 0.000002 0.000001 0.000000 0.000002 0.000000 0.000000 0.000001 0.000001 0.000000 -0.000001 -0.000002 -0.000002 -0.000001 -0.000002 -0.000003 -0.000001 -0.000002 -0.000002 -0.000001 -0.000002 -0.000003 0.000000 0.000000 0.000000 0.000000 0.000000 0.000000 0.000000 0.000000 0.000000 0.000000 0.000000 0.000000 0.000000 0.000000 0.000000 0.000000 0.000000 0.000000 0.000000 0.000000 0.000000 -0.000000 0.000000 0.000001 -0.000000 -0.000000 0.000000 
-0.444359 89.356316 3.304397 2.424273 -4.804055 2.303276 -0.000000 0.000000 -0.000000 -16.995742 33.538688 -1.915124 41.557118 -10.273110 10.292118 -25.189458 -9.535461 5.042029 0.000000 -0.000000 -0.000000 0.000000 -0.000001 0.000001 -24.938945 -25.131121 -28.197360 32.711238 -11.794134 -9.680321 -2.116826 -17.226340 28.070204 -0.000000 -0.000000 -0.000000 -0.000002 -0.000001 0.000003 1.212670 1.630409 -7.330734 -2.823362 0.428976 1.358848 -2.839644 -0.008856 -1.427261 2.430045 0.112727 0.133608 2.430082 0.112726 0.133605 -0.000000 -0.000000 0.000000 2.430036 0.112723 0.133612 2.429967 0.112725 0.133609 -0.000000 -0.000000 -0.000000 -0.000000 -0.000000 -0.000000 2.462223 -13.249359 -17.068906 28.226665 -39.331791 -37.431810 -30.634160 -10.161903 -3.037154 -5.950956 -0.948099 -8.687169 8.311863 -1.597639 -2.262789 15.158099 37.903998 -3.478581 -0.000001 -0.000001 -0.000004 0.240154 4.648687 -38.942785 2.462942 4.773059 -54.568413 0.000001 -0.000000 0.000000 2.472499 7.325691 -40.537473 2.463790 4.773663 -54.578682 0.000000 -0.000001 0.000000 4.791247 10.088513 -39.932124 2.471154 4.778858 -54.666860 0.000001 -0.000002 0.000001 6.553200 13.883107 -42.406695 2.462941 4.773038 -54.568417 0.000000 -0.000005 -0.000000 0.000002 -0.000001 0.000001 0.000002 -0.000001 0.000001 0.000001 -0.000001 0.000001 -0.000002 0.000001 -0.000000 -0.000001 0.000001 -0.000001 -0.000002 0.000001 -0.000000 -0.000001 0.000001 -0.000000 11.250250 17.202909 19.945759 10.912484 23.354524 36.698692 -0.237458 11.336455 4.671619 -5.427647 9.477721 8.076678 7.141943 3.473318 2.856453 15.307905 -39.800035 3.213122 0.000002 -0.000001 0.000001 -0.059755 -3.761661 38.262651 1.962682 -3.799941 54.620268 -0.000001 -0.000002 0.000000 2.119537 -6.441584 39.890426 1.963366 -3.800427 54.630534 -0.000000 0.000001 -0.000000 4.414819 -9.244126 39.322270 1.969219 -3.804557 54.718800 -0.000000 0.000001 -0.000001 6.101919 -13.022173 41.839403 1.962665 -3.799932 54.620251 0.000000 0.000002 -0.000000 -0.000002 -0.000000 -0.000000 -0.000004 -0.000000 0.000000 -0.000002 -0.000000 -0.000000 -0.000002 0.000001 0.000001 -0.000002 0.000002 -0.000001 -0.000002 0.000001 0.000001 -0.000002 0.000002 0.000000 -0.000000 0.000000 0.000000 -0.000000 0.000000 0.000000 -0.000000 0.000000 0.000000 -0.000000 0.000000 0.000000 -0.000000 0.000000 0.000000 -0.000000 0.000000 0.000000 -0.000000 0.000000 0.000000 -0.000000 -0.000000 -0.000001 -0.000000 0.000000 -0.000000 
